<svg width="681" height="652" viewBox="0 0 681 652" fill="none" xmlns="http://www.w3.org/2000/svg">
<path d="M410 130C412.667 130 417.7 133.5 416.5 147.5C416.5 148.7 417.5 149 418 149C419.667 149.333 423.4 149.8 425 149C427 148 434 145.5 436 132.5C438 119.5 430 115.5 425.5 115.5C421 115.5 413.5 119.5 412 120.5C410.5 121.5 408 119.5 409 117C410 114.5 411.5 109.5 426 109C433 108.5 433 103 426 100.5C420.4 98.5 408 102 402.5 104M410 130C409.2 122.4 404.667 109.5 402.5 104M410 130V137.5C406.833 140 401.176 146.51 400 152C398.665 158.231 398.518 161.292 400.618 170M410 130C410.48 135.999 411.253 146.99 411.5 154.617M402.5 104L401.5 98M401.5 98C403.667 95 410.1 89.1 418.5 89.5C429 90 427 94.5 425 96.5C423 98.5 429.5 96.5 430.5 93C431.3 90.2 431.5 83.5 431.5 80.5C435.833 76.5 444.7 68.3 445.5 67.5C446.5 66.5 446.5 57.5 437.5 62.5C436.768 63.2321 436.304 64.0981 435.593 65M401.5 98C400.3 95.2 397 90.8333 395.5 89C397.333 86.5 401.7 80.6 404.5 77C407.3 73.4 406.667 69.1667 406 67.5C406.333 67.5 405.6 67.5 400 67.5C396.4 69.5 392.833 70 391.5 70M412 75.5L412.5 74.5C416 69.5 423.5 70.3235 427 69.5C432.389 68.2321 434.361 66.5622 435.593 65M412 75.5C414.8 82.3 411 87.5 411 87.5M412 75.5C409.667 74.1667 406.8 69.9 414 63.5C415.5 62 424.5 62 432 65.5M432 65.5C433.2 65.9 434.895 65.3333 435.593 65M432 65.5C436.167 66.3333 443.8 65.4 441 55C439.8 50.2 428.833 43.6667 423.5 41C423.667 45.1667 423.4 53.8 421 55C418 56.5 418 46.5 402.5 39C398.5 37.5 388.5 41 377.5 38.5C366.5 36 364.5 28.5 355.5 28.5C351.5 28.5 348.833 32.1667 348 34M348 34C346.5 31.8333 340.3 27 327.5 25C311.5 22.5001 304.5 23.5 292 21.5C282 19.9 281.167 15.8333 282 14C285.167 10.6667 294.1 4.8 304.5 8C317.5 12 320 10 331.5 7.5C343 5 349.5 4 358 12.5C364.8 19.3 371.5 19 374 18L388.5 11.5C390.667 11.1667 396.5 11.1 402.5 13.5C410 16.5 406 22 401.5 22.5C397 23 377.5 23 381 25C383.8 26.6 383.833 30.3334 383.5 32C381.5 33.3334 376.8 35.6 374 34C365.2 27.2 358 25.8334 355.5 26M348 34C349.038 34.8306 350.995 36.9549 353 40.3729M406 20.5C411.5 19.3333 424.2 19.2 431 28C437.8 36.8 429.5 48.6667 424.5 53.5C423.5 54.5 420.9 55.3 418.5 50.5C417.5 47.5 419.5 30 405 24.5C401.4 23.3 389.167 26.6667 383.5 28.5H366M356.5 48C357.5 52 359 61 370 63.5C371.42 63.7184 372.72 63.8414 374 63.968M356.5 48C355.444 44.9838 354.213 42.4415 353 40.3729M356.5 48C357.5 51.8155 363.1 60.4359 377.5 64.3939M391.5 70C402.5 76.5 400.5 79 400 80C399.55 80.8993 399.505 83.4161 391.5 82.0956M391.5 70C385.077 66.2047 381.041 64.9664 377.5 64.3939M340 66C356.5 63 350.5 45 350.5 43C354.5 43.5 356.5 74 367 76C377.5 78 385 80.5 388.5 81.5C389.608 81.7517 390.604 81.9477 391.5 82.0956M340 66C344 61.5 348 56 344 43C344 49 343 59.5 336 59.5C329 59.5 329 50.5 332 45C335 39.5 336.472 40 334.5 33C332.528 26 318.5 27.5 309 28.5C299.5 29.5 286 37 283 37.5C281.027 37.8288 279.5 37.5 279 37.5C281 34.5 284.6 27.6 283 24C281 19.5 277.5 18 271.5 19.5C265.5 21 260 27.5 250.5 24C256 17 277 20 285 10C286.333 8.33333 285.6 4.3 272 1.5C254 -0.499999 243 7.5 236.5 9.5C230 11.5 220.963 11.5597 212.5 12.5C203.5 13.5 192 21.5 192 25C196.057 25.2029 201.925 24.2206 208 23.3288M340 66C337.833 66.1667 332 66.3 326 65.5C319.6 63.5 319 52.6667 319.5 47.5C319.833 47.5 319.9 47.5 317.5 47.5C306.468 48.3 302.903 62.1667 302.5 69C299 68.6667 292.8 65.6 296 56C299.2 46.4 310.333 37.6667 315.5 34.5C301.688 33.5474 296.042 39.4004 290.351 44.7117M340 66C341 66.6667 343.4 67.9 345 67.5C347 67 343 75.5 330.5 75.5C334.9 76.7 338.333 79.6667 339.5 81C338.794 82.8349 335.124 85.7215 326 84.8621M208 23.3288C216.9 22.0223 226.246 20.9096 231 24C232.167 24.1667 231.9 26 221.5 32C211.1 38 213.167 43.5 215.5 45.5C216.333 46.3333 218.8 47.7 222 46.5C224.897 45.4138 225.958 40.1324 230.5 34.6432M208 23.3288C221 18.6575 234 18.5 237.5 18.5C241 18.5 243 22.5 237.5 28.5C235.018 30.0796 233.07 31.7865 231.497 33.5M208 23.3288C201 25.3858 186.6 30.5 185 34.5C183.4 38.5 190 42.5 193.5 44M193.5 44C195.5 44.1667 199.9 44.8 201.5 46C203.5 47.5 205 48 208 47.5M193.5 44C190 48.1667 181.2 55.2 174 50C173 46 173.5 39 174 35.5C168 35.5 148 40.5 143.5 64.5C148 64.5 151.5 60 158.5 60C165.5 60 166.5 63 169.5 67.5C172.5 72 172.5 73.5 177.5 73C175.5 70.5 175 70 174 66.5C175.2 64.5 185.833 64.3333 191 64.5C194.5 64.6129 217.1 52.1 221.5 52.5L224.5 53.5C223.667 53.6667 221.7 54.2 220.5 55C219 56 213 62.5 208.5 64.5C204.9 66.1 195.333 66.8333 191 67C191.833 69 195.1 73 201.5 73C207.9 73 216.167 72 219.5 71.5C222.469 71.0547 228.557 69.5782 231.549 67M271 56C272.5 59 284.555 50.0329 289.5 45.5C289.785 45.2392 290.068 44.9761 290.351 44.7117M271 56C270.333 57.8333 270 62.1 274 64.5C278 66.9 284.667 56.047 287.5 50.3205M271 56C270.021 54.0421 269.894 52.5102 269.924 51.2651M408.5 222.5C410.9 219.7 410.5 212 410 208.5C408.613 204.756 405.934 196.996 404.613 191.5M408.5 222.5C405.5 226 404 229.5 393.5 234.5C391.5 235 389.833 235 389.5 234.5C387.667 235.5 383.9 238.2 383.5 241C383.1 243.8 384 245.5 384.5 246M408.5 222.5C407.5 224.333 402.9 228.8 392.5 232C380 240 387.5 244.5 389.5 246M404.613 191.5C404.346 190.391 404.134 189.373 404 188.5C403.2 183.3 402 176.333 401.5 173.5C401.411 173.159 401.325 172.826 401.241 172.5M404.613 191.5C404.075 187.167 403.4 177.5 405 173.5C407 168.5 411 168 411.5 161.5C411.594 160.276 411.598 158.346 411.54 156M411.54 156C408.406 158.667 402.01 164.7 401.5 167.5C400.99 170.3 401.115 172 401.241 172.5M411.54 156C411.529 155.553 411.515 155.092 411.5 154.617M401.241 172.5C401.015 171.616 400.807 170.785 400.618 170M411.5 154.617C411 152.911 408.7 150.6 403.5 155C398.3 159.4 399.412 166.833 400.618 170M389.5 246C387.5 247.2 385.333 246.5 384.5 246M389.5 246C391.1 258 387.833 263 386 264M384.5 246L381.5 242M381.5 242C381.833 240.5 382.3 237.2 381.5 236C380.5 234.5 371 226 373 222.5M381.5 242C377.167 240.333 367 238.4 361 244C355 249.6 348.5 251.333 346 251.5M373 222.5C375 219 375 214.5 389 218.5C391.8 220.5 393.167 221.667 393.5 222L373 222.5ZM373 222.5C368.667 222.5 360.5 219.4 362.5 207M362.5 207C363.167 205 364.556 203.278 366.185 202M362.5 207C361.5 209.333 356.1 216.2 342.5 225C349.605 216.5 364.052 197.3 365 188.5C366.185 177.5 370 157.5 353 147.5M366.185 202C369.444 199.444 373.667 198.667 375 201C373.29 200.667 369.133 200.4 366.185 202ZM353 147.5C335 143.1 321.833 147.667 317.5 150.5M353 147.5C351 147 346.5 146.588 346.5 149.5C346.5 153 347 154.5 348 156C349 157.5 349.5 160 352 162.5C354.5 165 356.5 160.5 357 159.5M353 147.5C357 149.9 357.333 156.5 357 159.5M317.5 150.5C323.5 152.833 337.8 159 347 165C358.6 165.8 360.167 165.333 359.5 165C360 165 360.2 163.9 357 159.5M317.5 150.5C314.667 150.5 308.1 148.6 304.5 141C304.5 139.5 317.5 144 328.5 141M328.5 141C325 143.333 314.9 146.1 302.5 138.5C300.9 131.7 310.833 123.333 316 120M328.5 141C338.404 138.299 342.633 136.409 352.5 137.883M356 138.5C360.8 139.7 365 144 366.5 146L356 138.5ZM356 138.5C354.754 138.251 353.592 138.046 352.5 137.883M316 120C319 118.333 328.1 115.2 340.5 116C343.7 116 352.833 120.667 357 123C357.528 123.081 358.22 123.123 359 123.082M316 120C319.761 118.713 327.306 116.628 336.5 115.062M366.5 119C374 121.667 389.1 128.6 389.5 135M366.5 119C364.685 122.025 361.42 122.953 359 123.082M366.5 119C365.874 118.444 364.814 117.586 363.5 116.659M389.5 135C389.893 141.281 390.285 143.555 388.5 147.872M389.5 135C388.333 134.333 384.4 133.5 378 135.5C371.5 135.5 392 125 373 130C371 131.2 371 131.5 371 132M355 182C351.8 182.8 356.667 176.667 359.5 173.5C360.667 171.5 358.8 168 342 170C336.8 170 329.5 166 326.5 164C331.103 166.667 343.448 171.8 356 171C357 173.5 353 179.5 353 182C353 182.5 355 182 355 182ZM355 182C361.493 181.188 375.56 166.875 382.769 157.5M382.769 157.5C383.512 152.667 382.2 141.7 371 136.5C368.825 135.709 366.181 135.429 363.5 135.51M382.769 157.5C383.748 156.227 384.6 155.045 385.29 154M352.5 137.883C355.22 136.603 359.403 135.635 363.5 135.51M385.29 154C385.78 153.259 386.187 152.587 386.5 152C387.36 150.388 388.011 149.054 388.5 147.872M385.29 154C386.693 152.5 390.4 149.5 394 149.5C391 149 389 149.244 388.5 147.872M363.5 135.51C366 132.84 371.5 127.3 373.5 126.5C375.5 125.7 366.333 125.833 361.5 126C360.667 125.721 359 124.747 359 123.082M353 40.3729C355 40.2254 360.6 42.3443 367 52C368.2 55.2 376.833 53.3333 381 52C386 50 398.3 46.4 407.5 48C412 49 415.5 55.5 414 61C411.5 63 412 56 399 56C390 56.5 387 62.5 378 63.5C370.8 64.3 372.333 64.1453 374 63.968M374 63.968C375.159 64.0826 376.301 64.2001 377.5 64.3939M374 63.968C374.5 65.4787 377.1 68.8 383.5 70C391.5 71.5 393.5 79 392.5 80C391.7 80.8 391.5 81.7304 391.5 82.0956M391.5 82.0956C388.833 82.397 381.6 82.6 374 81C374 82.0956 375 87.5 366.5 84.5C360.5 80.9 357.333 74.3333 356.5 71.5C355 72.3333 352.7 75.5 355.5 81.5C356.7 83.5 357.5 86 357 86.5C356.5 87 326 84.8621 326 84.8621M326 84.8621C324.35 84.7067 322.522 84.4288 320.5 84C319.935 83.6894 319.255 83.3031 318.5 82.8602M290.351 44.7117L289.5 46C288.676 47.4651 288.019 48.9135 287.5 50.3205M287.5 50.3205C285.183 56.5962 285.592 62.0494 286 64.5C286.822 69.432 293.667 78.5 297 81C299.333 83 304.7 86.5 307.5 84.5C311 82 309 77 307 74.5C309.326 77.1578 314.801 80.6893 318.5 82.8602M269.924 51.2651C269.94 50.6024 269.848 49.7772 270 49.5C274.4 41.5 272.833 35.5 271.5 33.5L254.5 51.5L254 55C253.5 55.5 252.5 55.5 252.5 55.5C248.163 56.3262 244.508 57.579 241.5 59.047M269.924 51.2651C269.116 49.8434 266.1 47.1 260.5 47.5C253.5 48 247.5 50.5 242.5 41C241.5 40 253 43.5 259 37C263.8 31.8 264 28.1667 263.5 27C262.5 27.3333 259.5 28.7 255.5 31.5C250.5 35 248 36 237 34C235 33.6 232.498 33.5 231.497 33.5M231.497 33.5C231.146 33.8812 230.815 34.2627 230.5 34.6432M230.5 34.6432C233.167 38.2621 239.1 46.2 241.5 49C243.9 51.8 242.5 56.8646 241.5 59.047M241.5 59.047C237.227 61.1325 234.261 63.6524 232.5 66C232.237 66.35 231.917 66.6833 231.549 67M318.5 82.8602C318.9 83.0934 326.667 91.3839 330.5 95.5C332.667 97.6667 335 102.9 327 106.5C317 111 304 107.5 294.5 104C285 100.5 277.5 90 278 78M278 78C278.5 66 269.5 57.953 257 58.5C244.5 59.047 235 66.5 232 71.5C229.6 75.5 230.667 90.1667 231.5 97C231.769 101.127 231.691 107.939 230.5 114.348M278 78C272 77 273 77 268 74.5C264 72.5 259.333 71.6667 257.5 71.5C252.167 72.5 241.7 75.8 242.5 81C243.3 86.2 249.833 83.8333 253 82C257 80.4 262.667 79.3333 265 79C264.5 80.954 261.1 85.8897 251.5 90C239.5 95.1379 237.5 108 240.5 116C257.631 108 261.5 84.5 274 87.5C286.5 90.5 290.5 111 288.5 117.5C286.5 124 281.5 126.5 276 118.5C271.6 112.1 263.5 114.167 260 116C270.5 115.5 271 132.5 261.5 139C262.3 121 251.833 117.833 246.5 118.5C250.667 122 250.868 131.108 245.5 132.5C234.7 135.3 231 121.565 230.5 114.348M202.635 175.5C204.027 173.848 205.209 171.565 206 168.5C210 153 207 146 203 140.5C199 135 193.5 133.5 187 137.5C180.5 141.5 169.5 165.5 175.5 179C181.5 192.5 188 190 199.5 188.5C206.483 187.589 213.098 186.863 218 189.119M202.635 175.5C213.771 174.5 218 180.5 218 184.5C212.8 184.9 198.833 186 192.5 186.5C185.5 186.5 179.5 181 179 170C178.5 159 182 153 189 145.5C194.6 139.5 199.667 141 201.5 142.5C198.5 146.167 193.6 153.6 198 154C203.5 154.5 207 156 210 158.5C209.5 162 207 160.5 197 160.5C188.229 160.5 187.151 167.424 187.356 172.5M202.635 175.5C197.466 181.637 189.407 179.059 187.779 175.5C187.629 175.173 187.534 174.838 187.5 174.5C187.439 173.886 187.385 173.211 187.356 172.5M187.356 172.5C188.359 169.5 191.592 163.5 196.5 163.5C202.635 163.5 209.5 166.5 216.5 173.5C222.634 170.433 224.728 160.839 223.894 139M223.369 129C223.74 128.693 224.117 128.36 224.5 128C227.64 125.045 229.479 119.845 230.5 114.348M223.369 129C215.504 135.497 210.252 130.095 205 121.5C202.6 124.7 208.667 130.167 212 132.5C214.167 135.5 218.4 143.6 218 152C217.654 146.5 214.5 133 195 130.5C186.486 129.408 179.57 132.934 174.53 137.5M223.369 129C223.469 130.548 223.558 132.048 223.637 133.5M223.637 133.5C226.425 137 233.9 143.9 241.5 143.5C251 143 251.5 141.5 255.5 137C256 139 257.5 142 251.5 148C246.7 152.8 249.5 155.667 251.5 156.5C254 156.167 258.7 156.3 257.5 159.5C256 163.5 253 162 253 166.5C253 171 256 167 255.5 174.5C255 179.333 254.4 189.5 256 191.5C256.667 192.5 257.9 194.8 257.5 196C257.1 197.2 251.333 193.833 248.5 192L248 201C246.167 200.667 242.5 198.2 242.5 191C242.5 182 240.5 182.5 239.5 182C238.5 181.5 233 184 232 189C231.2 193 232.667 195.667 233.5 196.5C230.833 196.833 225.4 196.6 225 193C224.5 188.5 230 183 229 176.5C228.2 171.3 225.667 170.333 224.5 170.5C228.333 169.5 235.6 166.6 234 163C232 158.5 227.5 159.5 226.5 157C225.5 154.5 227.5 150.434 230.5 146C232.9 142.453 227.096 139.855 223.894 139M223.637 133.5C223.741 135.414 223.827 137.247 223.894 139M231.549 67C230.699 69.9068 229.7 77.1484 232.5 82.8602C235.3 88.572 226.667 104.333 222 111.5C212.833 119.5 193.2 130.7 188 111.5C185.6 105.5 197 112 203 116C208.167 117.072 219.7 114.073 224.5 93.5C229.3 72.9267 218.167 69.5945 212 70.5L201.5 87.5C200.167 88.9818 197.4 89.9564 197 82H192.5C193.667 86.8333 194.6 97 189 99C184.2 97.4 185 83 186 76C182.167 76.1667 174.8 79.6 176 92C177.5 107.5 193 106.5 190 120C190 129 176 140.9 176 126.5C178.167 119.667 179.826 103.525 169.5 105C159 106.5 154.833 108 154 110M170 98C155.833 105.38 129.2 116.412 136 101.5M136 101.5C136.474 100.995 136.996 100.495 137.56 100M136 101.5C135.288 103.5 133.228 107.7 130.682 108.5M137.56 100C145.927 92.6613 163.376 86.4969 164.5 82C165.833 77.1667 163.9 67.8 145.5 69C126 79 124 92.5 130.5 93.5C130.5 89.5 133.5 86.5 135 85.5C136.333 84.6667 138.5 83.5 138.5 87.5C138.5 92 139.121 96 137.56 100ZM174.53 137.5C170.335 141.3 167.438 145.82 166 149C164.513 152.098 162.805 159.379 164.657 168.5M174.53 137.5C175.052 135.346 175.391 132.474 175.172 129.5M130.682 108.5C130.622 109.132 130.561 109.799 130.5 110.5C129.5 122 144.5 113 162 115C171.587 116.096 174.697 123.038 175.172 129.5M130.682 108.5C131.609 98.7635 132.348 97 130 97C127.5 97 113.5 113.5 110 122.5C106.5 131.5 107 133.5 108.5 134.5C109.608 135.239 111.807 134.341 114.694 131M130.682 108.5C125.364 109.01 122.5 119.5 118 126.5C116.824 128.33 115.716 129.818 114.694 131M175.172 129.5C173.448 125.333 166.289 117.019 153.5 122.5C146.5 125.5 135.5 139 129.5 122.5M129.5 122.5L127 118C124.667 119.167 120.2 123.4 121 131C122 140.5 132.5 143.5 136 144M129.5 122.5C128.167 125.667 126.1 134.3 128.5 141.5M129.5 122.5C125 124.667 117.4 131.9 123 143.5C128 151.5 138.5 150.5 146.5 151.5C149.7 151.9 151.167 152.333 151.5 152.5C150.525 154.206 149.099 157.146 147.94 160.5M136 144C139.5 144.5 152 145 154.5 153.5C154.833 156.833 155.7 164 156.5 166C157.5 168.5 162.814 173 164.657 168.5M136 144C143.5 142.5 146.5 135.5 154.5 134.5C171.3 133.7 168.271 156.833 164.657 168.5M164.657 168.5C165.296 171.646 166.359 175.012 168 178.5C168.237 179.003 168.459 179.503 168.671 180M146 171.5C145.925 170.218 146.002 168.869 146.191 167.5M146 171.5C145.609 170.382 145.217 169.388 144.812 168.5M146 171.5C146.225 175.332 146.991 181.143 147.795 186.5M149.5 197C149 194.833 146.8 189.3 142 184.5C136 178.5 132.5 177.5 122 176.5C113.6 175.7 108.5 168.5 107 165M149.5 197C149 197 137.5 198.715 129 187.5C127 182 111.397 185.5 107.198 172.5M149.5 197C149.5 198.81 148.593 203.807 145.262 211M149.5 197C149.064 194.527 148.417 190.65 147.795 186.5M107 165C107.122 165.488 107.28 167.622 107.198 172.5M107 165C103.999 144.6 110.879 133.833 114.694 131M107.198 172.5C107.169 174.282 107.107 176.431 107 179C106.5 191 117.5 196.5 121 198C124.5 199.5 122 205 123 208C124 211 130 207 130 208.5C131 213.5 121.5 218 121 227C120.663 233.061 127.811 231.185 134.5 225.647M114.694 131C113.629 138.5 115.637 153.413 126 157C137.546 160.997 141.598 161.444 144.812 168.5M147.94 160.5C148.96 162.5 152.1 167 156.5 169C162 171.5 167.676 177.5 168.671 180M147.94 160.5C147.169 162.731 146.515 165.145 146.191 167.5M168.671 180C168.958 180.673 169.224 181.34 169.477 182M146.191 167.5C147.257 169.68 149.662 173.645 153 177.389M153 177.389C155.021 179.655 157.384 181.841 160 183.5C168.671 189 169.314 199 164.657 202.5C160 206 157 209 153 208C151.5 204 156 195.5 157 193C158 190.5 157.5 180.278 153 177.389ZM169.477 182C172.752 190.559 173.715 197.973 186.5 201.5C189.048 202.027 193.05 202.999 196.5 204.152M169.477 182L170.5 204.5C174.333 203.833 182.8 202.7 186 203.5C189.2 204.3 186.333 206.833 184.5 208C181.41 209.167 172.385 211.1 161 209.5C160 212 160.5 216 166 217.5C171.5 219 186.212 215.5 187.356 214.5C188.5 213.5 187.5 221 184.5 222C181.5 223 170.814 222.5 164.657 219.5C158.5 216.5 155.525 214 145.262 211M145.262 211C144.606 212.417 143.856 213.92 143 215.5C141.778 217.756 140.221 219.888 138.5 221.803M145.262 211C142.842 210.5 138.8 210.5 142 214.5C145.443 216.965 148.966 217.404 151.5 219.701M196.5 204.152C199.594 205.186 202.243 206.365 203 207.5C205 210.5 209.5 216.5 216.5 216.5C217.262 216.5 218 216.423 218.706 216.27M196.5 204.152C196.167 204.935 195 208.6 193 217C190.5 227.5 180 235.5 171 235.5C165.962 235.5 161.708 232.367 158.5 228.907M151.5 219.701C152.05 220.2 152.554 220.786 153 221.5C154.101 223.261 155.977 226.185 158.5 228.907M151.5 219.701C149.333 218.801 144.1 218.5 140.5 224.5C136 232 134 237.5 121 239.5C120.829 239.526 120.662 239.553 120.5 239.581M138.5 221.803C137.5 240.107 129.5 247 125.5 247.5C123.536 247.745 119.284 246.304 117 244.536C116.773 244.36 116.565 244.181 116.381 244M138.5 221.803C137.232 223.215 135.876 224.508 134.5 225.647M134.5 225.647C134 228.819 130.5 236.046 120.5 239.581M120.5 239.581C114.997 240.528 114.697 242.343 116.381 244M116.381 244C115.254 248.5 114.1 259 118.5 265M118.5 265C117.5 271 116 272.5 114.5 276C115.5 277 117.7 279.6 118.5 282M118.5 265C115.667 257.5 112.9 244.4 124.5 252C139 261.5 142.5 254.5 150 247C152.87 244.13 156.327 242.797 159.5 242.891M118.5 265C123.5 271.333 137.1 282.4 151.5 276C163.167 271.5 183.7 259.7 172.5 248.5C172.37 248.24 171.598 247.879 170.5 247.372M118.5 282C119.3 284.4 118.833 279 118.5 276C118.5 274.167 119.4 271.7 123 276.5C127.5 282.5 134.5 289 150.5 282C166.5 275 169 265.5 169 254C169 246.901 164.618 243.041 159.5 242.891M118.5 282C122.833 288.667 134.8 299.9 148 291.5C161.2 283.1 168.5 285.333 170.5 287.5C174.333 290.667 179.409 296.698 169.5 298.5C164 299.5 162.5 294.5 151.5 296.5C148 298.5 148 305.5 130.5 302.5L123 299.5M118.5 282C119 282.333 119.9 284.2 119.5 289M170.5 247.372C167.375 245.93 161.61 243.31 160.5 238.5C160.686 237.2 164.114 236.28 168.5 235.652M170.5 247.372C174.824 247.866 177.89 246.267 180 243.926M180 243.926C182.574 241.07 183.725 237.109 184 234.5C179.894 234.589 173.559 234.927 168.5 235.652M180 243.926C178 241.052 172.9 235.374 168.5 235.652M180 243.926C181.333 246.951 182.2 257.3 175 274.5C174 277.5 173.5 285 175.5 289M158.5 228.907C159.833 232.198 161.9 239.603 159.5 242.891M175.5 289C177.1 292.2 174.167 299.333 172.5 302.5M175.5 289C177.167 278.333 182.3 255.5 189.5 249.5C198.5 242 203.5 245.5 207 242.5C210.5 239.5 211 240.5 213 232C215 223.5 215 217 216.5 223.5M123 299.5C121.667 298 119.1 293.8 119.5 289M123 299.5C124.864 300.934 127.53 303.54 129.964 307M119.5 289C122.5 290.667 128.9 296.5 130.5 306.5M130.5 306.5C133.333 308.295 141 310.708 149 306C157 301.292 164.333 300.038 167 300C168.167 302.333 169.1 308 163.5 312C156.5 317 145.5 311 137 312C145.5 317.5 143.5 322 143.5 334.5C143.5 347 151.5 349.5 156.5 351.5C160.5 353.1 161.167 362.833 161 367.5C160.333 370 158.4 375 156 375C153 375 151.5 364.5 150.5 360.5C149.5 356.5 139.5 357 138.5 350.5C137.7 345.3 138.167 339.333 138.5 337C132.1 331 130.5 326.833 130.5 325.5C132 325.667 135.2 325.7 136 324.5C136 317.662 133.186 311.582 129.964 307M130.5 306.5L129.964 307M216.5 223.5C216.5 230.5 215 243.744 216.5 247.372C218.14 251.339 215.5 253.5 226.5 259.5C229.667 259.833 237.3 261.5 242.5 265.5C249 270.5 254.5 274.5 264.5 276C274.5 277.5 293.5 281 304.5 284.5C309.5 286.833 320.3 292.1 323.5 294.5C330.833 294.667 347.2 295.4 354 297C356.667 298.167 363.1 300.2 367.5 299C373 297.5 378 286 380.5 286.5M216.5 223.5L214.5 236C214 243.5 214.2 259.3 219 262.5C223.8 265.7 228 278.5 229.5 284.5C230 301 260 302 274.5 309.5C287.704 316.33 284.5 325 295.5 329.5C307.5 331.5 316 347.5 318 356.5C319.6 363.7 321.333 362.167 322.5 360.5C322.5 356.167 322.8 346.7 324 343.5C327.167 338 330 334.167 332.5 331.389M380.5 286.5V284C378.167 280.833 370.1 273.4 356.5 269C361.833 270 374.1 273.7 380.5 280.5C380.833 276.5 381.9 268.4 383.5 268M380.5 286.5C380.561 287.505 380.63 288.704 380.699 290M383.5 268C385.5 267.5 365.5 257 346 251.5M383.5 268C384.204 267.765 384.725 267.41 385.104 267M346 251.5C347.5 252.167 351.4 253.3 355 252.5C359.5 251.5 375.5 251 379.5 255.5C382.7 259.1 385.167 262.667 386 264M386 264C386.118 264.707 386.019 266.012 385.104 267M368.5 315.5C374.5 313.5 380.5 306 381 304.5C381.327 303.519 381.008 295.793 380.699 290M368.5 315.5C362.5 317.5 347 319.5 343.5 322.5C341.167 324.5 337.5 325.833 332.5 331.389M368.5 315.5C363.5 315.333 352.5 315.3 348.5 316.5C343.5 318 332.5 317.5 321.5 312C318.833 309.667 310.8 304.6 300 303C286.5 301 274.5 300.5 267 298C259.5 295.5 255.5 294 241 279C234.337 272.107 225.141 270.705 217 271.396M0.5 480.5C1.16667 480.5 5.2 479.4 16 475C32 474 58 461 63.5 457.5C69 454 74 448 110 432C149 420 156 388 159.5 379.5C163 371 160.5 339 161.5 323.5C162.5 308 176.5 302.5 181 295.5C181.773 294.298 182.821 292.936 184.033 291.5M332.5 331.389C331.833 333.426 331 338.4 333 342C335 345.6 337.167 351.167 338 353.5C338.833 358.667 339.3 370.3 334.5 375.5C328.5 382 327.5 387.5 326.5 393C325.5 398.5 316.5 413.5 309.5 418C302.5 422.5 287.202 438.096 284.5 443.5C282 448.5 279.583 451.459 273.5 454.5C270.5 456 265 459 262.5 457C257.5 448.5 250.4 430.6 252 423C254 413.5 254.5 401 252 393C249.5 385 255.5 375.5 264 375.5C272.5 375.5 272 379 285.5 378C291.5 377 292.5 380 295.5 380C297.9 380 309.833 378.667 315.5 378M332.5 331.389C330.167 334.759 326.1 344.2 328.5 355C332.5 350.5 330.694 333.278 332.5 331.389ZM315.5 378C319.89 378.593 324 383 324 387M315.5 378C309.333 377.167 295.2 375.7 288 376.5C288 376.5 282 376.5 282 368.5C282.667 365.167 282.1 358.6 274.5 359C265 359.5 257.5 365 256 359.5C254.5 354 258 344 259.5 341.5C261 339 267 327 260 320C253 313.5 234.5 300 232 295C229.5 290 219.5 277 218 276C216.8 275.2 216.833 272.597 217 271.396M217 271.396C207.425 272.209 199.311 275.919 198.5 277C195.097 280.01 188.466 286.248 184.033 291.5M218 189.119C221.171 190.579 223.625 193.287 225 198C228.119 208.694 224.488 215.02 218.706 216.27M218 189.119C217.833 190.08 217.9 192.4 219.5 194C221.5 196 222 199.5 220 207C218 214.5 217.913 214.04 218.706 216.27M184.033 291.5C184.855 300.204 187.1 318.989 189.5 324.5C191.9 330.011 203.167 360.463 208.5 375C210.833 380.333 216 393 218 401C220.5 411 226 421 229 426.5C232 432 239.5 447 240 449C240.5 451 242.5 463.5 229 455.5C215.5 447.5 207.5 433.5 212 426.5C216.5 419.5 217 409 216 408C215 407 211 411.5 209.5 419C208.3 425 208.333 438.833 208.5 445C207.333 450.5 202.999 458.484 202.5 445C202 431.5 192 433.833 189 436.5C188.167 435.333 187 431 189 423C191.5 413 197 410.5 196.5 390.5C196 370.5 194 359.5 191 351.5C188.6 345.1 187.333 336.167 187 332.5C186.667 339.833 185.2 356.2 182 363C178 371.5 169.5 401 169 407C168.5 413 168 429 166.5 435.5C165 442 161 448.5 160.5 452C160 455.5 159.5 455.5 161 456C162.5 456.5 181 450.5 184 442C182 449 173 457 158 461C143 465 114 460 99.5 462.5C85 465 75 469.5 70 470.5C66 471.3 62.3333 471.833 61 472M61 472C63.1156 470.81 66.3695 469.038 70 467.158M61 472C56.5 475.5 43.2 483 26 485C24.4 485 20.6667 486.333 19 487C27.3333 487.333 45.2 487.8 50 487C56 486 102 486.5 109 485C116 483.5 133 478 143 478.5C153 479 168 484 176 483.5C185 484.5 237.5 486 244 485.5C250.5 485 258 485.5 264.5 488.5C271 491.5 284 500.5 292.5 500C301 499.5 322 494.5 324.5 494.5C326.5 494.5 326.333 494.5 326 494.5H328.5L330.145 500M70 467.158C75.5217 464.298 81.9148 461.189 86.5 459.5C96 456 109.5 451 116 446.5C122.5 442 143.5 428 146.5 424.5C148.9 421.7 152.5 416.667 154 414.5C150.5 423.667 142 441 137 445C132.5 448.5 125 453.5 111.5 456C98 458.5 75 464.514 70 467.158ZM137 638.5C138.167 640.333 141 643.3 143 640.5C145.5 637 146 634 142 635C138 636 138.5 642.5 143 642.5C147.5 642.5 151 633.5 147.5 631C144 628.5 139 626 133 633.5C127 641 135.5 649 138.5 649.5C141.5 650 162 649 162.5 638.5C163 628 153 621.5 145 621.5C137 621.5 127 623.5 124 635.5C121 647.5 140 651 148.5 650.5C157 650 183 648 192 644.5C243.5 626 238.5 613.5 260.5 553M260.5 553C261.667 552.167 265.9 551.8 273.5 557C283 563.5 291 570 300.5 578C310 586 313 584.5 325 584C337 582.5 340 582.5 347 582M260.5 553L263.5 550.5C267.147 550.183 269.034 550.017 270.5 550.193M347 582C344.5 588 335 604.5 335.5 613.5C335.979 622.125 336.918 633.505 344.916 645M347 582C344.333 582.667 337.2 584.5 330 586.5C321 589 321.5 593 321.5 596C321.5 599 318.5 614.5 309.5 623C302.3 629.8 297.5 638.833 296 642.5C297 642 300.5 640.3 306.5 637.5C321 632.5 323 628.5 328 623C331 634.5 338 644.5 346 646.5C345.625 646 345.264 645.5 344.916 645M347 582C347.5 579.167 348.9 570.2 350.5 557C352.1 543.8 346.5 527.5 343.5 521C340.5 515.167 333.9 500.9 331.5 490.5C329.1 480.1 313.167 473.833 305.5 472M344.916 645C383.111 646.167 462.3 647.8 473.5 645C487.5 641.5 525.5 633.5 526.5 602C527.5 570.5 519.74 574.959 516 557.5C513.04 543.683 516.511 538.274 509 522C506 515.5 507 509.5 491 508.5C486.833 507.5 477.3 502.5 468.5 490.5C457.5 475.5 459 490.5 461.5 494.5C464 498.5 476.5 527.5 475.5 537C474.5 546.5 473 577.5 469.5 598C466.7 614.4 477 620.5 482.5 621.5C486.167 621.167 494.151 616.787 491 603C487 585.5 474 595 474 598C474 601 471.5 606.5 479.5 610.5M479.5 610.5C481.5 610.333 485.2 608.9 484 604.5C482.8 600.1 480.5 602.333 479.5 604M479.5 610.5C476.259 609.768 469.296 606.97 467 591.748C466.396 587.742 462.5 585.5 462.5 576C461.5 567 456.773 548.211 452 540.5C445.5 530 422.585 494.843 398 474.5C389.372 467.361 373.4 453.8 345 457M479.5 604C479.167 604.833 478.9 606.7 480.5 607.5C482.5 608.5 485.5 605.5 480 603M479.5 604L483.5 599.5M345 457C332.667 457.5 307.5 461.2 305.5 472M345 457C343.5 457.073 297 458.5 305.5 472M345 457C359.167 457.167 389.1 456 395.5 450C389.833 446.833 376.4 440.4 368 440C357.5 439.5 352.5 453 348.5 440C346.216 429.951 353.53 408.218 350.999 387M305.5 472C307 482.5 312.5 481 323.5 490.5C325.39 492.89 327.833 496.279 330.145 500M270.5 550.193C273.658 550.571 274.866 552.537 287.5 558C306.5 562 307 555 320 546.5C333 538 334 543 331.5 543.5C329.5 543.9 326 544.333 324.5 544.5L282 549.5C283.667 546.5 291 539.8 307 537C327 533.5 333.5 530 337 521C338.866 516.202 334.766 507.435 330.145 500M270.5 550.193C272.833 550.128 278.7 549.7 283.5 544.5C289.5 538 306 528 314 523C322 518 332.291 511.5 330.145 500M514.61 402.5C511.627 399.522 507.02 395.64 503.5 395C498 394 478.5 392.5 469 391.5C461.4 390.7 459.833 394.5 460 396.5C460.8 406.5 471 406 476.5 404.5C479 403.5 481.2 400.1 490 404.5C498.8 408.9 492 410.333 487.5 410.5C484.895 410.407 480.773 410.293 477.5 410.28M514.61 402.5C515.356 403.245 516 403.933 516.5 404.5C518.259 406.709 520.497 409.501 522.921 412.5M514.61 402.5C528.219 412.5 552 436.5 559.5 446C565.5 453.6 560.333 450.833 557 448.5C553.333 445.167 545.2 437.8 542 435C539.585 432.887 530.376 421.721 522.921 412.5M522.921 412.5C518.948 407.667 510.2 397.8 507 397C503 396 498.5 396.5 503.5 406.5C510.5 414.5 534 438.5 540.5 442.5C545.7 445.7 546.333 447.833 546 448.5C538.833 445.833 522.3 438.2 513.5 429C502.5 417.5 495 415 490.5 416C486.9 416.8 486 427.333 486 432.5C483.667 431.667 479.4 429.4 481 427C483 424 486 424 490 427C494 430 507 443.5 517.5 448.5C527.5 454.5 541.5 463.5 550.5 467C559.5 470.5 583.849 485.814 590.5 494C597 502 598 503 599 506.5C593.5 505.5 579.1 505 569.5 501C563.333 498.167 549 491.9 541 489.5C531 486.5 521 485 518 481C516.5 479 538 484 543.5 483.5C549 483.5 565 484 550.5 478.5C548.208 477.631 540 473 524.5 470C518.5 468.167 504.3 463.2 495.5 458C484.5 451.5 481.5 448 479 452.5C476.5 457 473 463 474.5 465L476 467.761M476 467.761C474.757 466.674 473.266 465.559 471.5 464.5C464 460 466.5 452.5 466.5 448.5C466.5 444.5 469.5 440 473.5 439.5C477.5 439 480.5 442 482 441.5C483.5 441 487 434.5 481 432.5C476.2 430.9 471.667 429.5 470 429C469 428.5 467.1 426.3 467.5 421.5C468 415.5 471.5 411 472.5 410.5C472.853 410.323 474.911 410.27 477.5 410.28M476 467.761C476.676 468.353 477.279 468.937 477.812 469.5M477.5 410.28C471.5 408.354 459.3 401.7 458.5 390.5C457.615 378.117 459.469 371.992 463.716 370.397M518 364.5C521.6 371.3 525.5 366 527 362.5C527.413 361.922 527.901 361.313 528.5 360.803M520.5 373.074C514.899 373.221 504.906 373.343 496 373C488.935 370.939 481.524 370.092 475.5 369.845M520.5 373.074C521.439 373.049 522.255 373.024 522.921 373L530 364.5C531.333 362.667 533.8 360.4 533 366C532.2 371.6 525 379.667 521.5 383C521 385.333 521.4 391 527 395C534 400 542 408.5 546 415C550 421.5 567.5 441 572.5 443.5C576.5 445.5 580.833 450.333 582.5 452.5C582.833 446.333 581.5 432.1 573.5 424.5C563.5 415 569.5 405.5 550.5 377.5C537.382 358.169 531.53 358.222 528.5 360.803M520.5 373.074C518.693 370.383 517.828 364.031 519 357C520.5 348 499 339.5 493 337.5C488.5 336.667 479 332.9 477 328.5C477 325.7 477 323 477 322C476.167 320.333 474.1 317.9 472.5 321.5C470.5 326 465.931 332 463.716 334.5M463.716 334.5C463.187 337.161 462.775 339.338 462 340.5C461.775 340.838 461.322 341.352 460.693 342M463.716 334.5C464.668 329.7 465.996 323.325 470.5 318.5C476.1 312.5 487 316.5 494 317C498.167 317.667 509.1 321.7 519.5 328.5C525.667 332.167 539.5 340.5 545.5 344.5C553 349.5 565.5 360 568 364.5C570.5 369 578 372.5 582.5 373.5C587 374.5 598.5 383 603 390.5C607.5 398 612.79 405.764 629.5 424.5C646 443 640 450.5 649 464.5C650 467.167 654.4 476 664 490C673 507.5 673.5 520.5 680.5 529.5C677 517.5 665.5 503 664 497.5C662.5 492 657 481.5 648 485C639 488.5 650 490 632.5 491.5C622 492.5 625 500.5 625.5 504C626 507.5 618 509 605 510.5C592 512 579 519.5 579 524.5C579 529.5 582.5 534.5 582.5 541C582.5 546.2 586.5 563.167 588.5 571C588.833 564.5 587.2 549.6 578 542C566.5 532.5 569 531.5 526.5 515.5C516 511.547 491 491.5 481 474C480.636 473.091 479.628 471.418 477.812 469.5M463.716 334.5C460.977 336.812 454.7 343.243 451.5 350.469M451.5 350.469C447.721 353.791 443.733 357.198 441 359.5C440.069 360.869 438.671 362.763 437 364.788M451.5 350.469C450.333 354.004 445.8 361.819 437 364.788M451.5 350.469C455.244 347.177 458.782 343.968 460.693 342M437 364.788C435.995 366.006 434.892 367.272 433.732 368.5M433.732 368.5C430.949 371.446 427.844 374.173 425 375.5C417.5 379 402.5 399.5 391.5 408C380.5 416.5 366 407 354.5 393C345.3 381.8 341.667 365 341 358C342.333 358 346 362.6 350 381C350.432 382.988 350.76 384.992 350.999 387M433.732 368.5C433.254 369 419.743 386.794 416.5 390.5C413 394.5 394.499 423.531 350.999 387M350.999 387C355.5 394 365.4 409.8 369 417C371 424.2 389.167 443.667 398 452.5C400.5 455 405 457.5 422.5 470C447.3 490.4 469.708 478.167 477.812 469.5M528.5 360.803C519.833 357.743 500 349.399 490 340.5C477.5 329.376 471.322 334 467 336.5C463.542 338.5 461.355 341 460.693 342M460.693 342C460.272 348.431 460.288 363.115 463.716 370.397M463.716 370.397C464.27 370.189 464.865 370.058 465.5 370C467.762 369.794 471.292 369.673 475.5 369.845M475.5 369.845C475.667 367.301 477.7 362.47 484.5 363.5C490.5 366 495.5 372.787 503.5 373M385.104 267C383.507 271.667 380.389 282.8 380.699 290M144.812 168.5C144.071 171.5 143.63 179.3 147.795 186.5M363.5 116.659C361.663 115.364 359.332 113.933 357 113C349.851 113.162 342.79 113.99 336.5 115.062M363.5 116.659C360.5 117.213 353.7 117.987 350.5 116.659C347.3 115.332 339.833 115.041 336.5 115.062" stroke="url(#paint0_angular_1_4)" style="mix-blend-mode:multiply"/>
<defs>
<radialGradient id="paint0_angular_1_4" cx="0" cy="0" r="1" gradientUnits="userSpaceOnUse" gradientTransform="translate(363 283) rotate(-27.2623) scale(330.739 346.343)">
<stop stop-color="#DD0EB0"/>
<stop offset="0.14375" stop-color="#CD5CB5" stop-opacity="0.929766"/>
<stop offset="0.284375" stop-color="#FF00B8" stop-opacity="0.86844"/>
<stop offset="0.551661" stop-color="#B02399" stop-opacity="0.791736"/>
<stop offset="0.762673" stop-color="#5A00B4" stop-opacity="0.71875"/>
<stop offset="1" stop-opacity="0.8"/>
</radialGradient>
</defs>
</svg>
